<?xml version="1.0" encoding="UTF-8" standalone="no"?>
<!-- Created with Inkscape (http://www.inkscape.org/) -->

<svg
   width="210mm"
   height="297mm"
   viewBox="0 0 210 297"
   version="1.1"
   id="svg5"
   xml:space="preserve"
   xmlns:inkscape="http://www.inkscape.org/namespaces/inkscape"
   xmlns:sodipodi="http://sodipodi.sourceforge.net/DTD/sodipodi-0.dtd"
   xmlns="http://www.w3.org/2000/svg"
   xmlns:svg="http://www.w3.org/2000/svg"><sodipodi:namedview
     id="namedview7"
     pagecolor="#505050"
     bordercolor="#eeeeee"
     borderopacity="1"
     inkscape:showpageshadow="0"
     inkscape:pageopacity="0"
     inkscape:pagecheckerboard="0"
     inkscape:deskcolor="#505050"
     inkscape:document-units="mm"
     showgrid="false" /><defs
     id="defs2" /><g
     inkscape:label="Layer 1"
     inkscape:groupmode="layer"
     id="layer1"><path
       style="fill:#000000;stroke-width:0.264583"
       d="m 107.76055,195.36856 c -1.55333,-2.30193 -3.73093,-6.78615 -4.14781,-8.54137 -0.15642,-0.65856 -0.35693,-2.14684 -0.44558,-3.30729 -0.14116,-1.84767 -0.093,-2.21791 0.3874,-2.97894 0.67911,-1.07579 1.4463,-1.37938 2.6561,-1.05106 1.69464,0.45991 2.28566,1.30099 3.45454,4.91617 l 0.71206,2.20234 0.83491,-1.47937 c 2.04709,-3.62725 5.15581,-5.61635 6.48398,-4.14873 1.13584,1.25509 0.80247,3.55279 -1.05214,7.25174 -1.53332,3.05814 -3.01072,5.22495 -4.93677,7.24045 -2.20022,2.30239 -2.32513,2.2991 -3.94669,-0.10394 z m 2.99559,-0.002 c 2.50292,-2.63378 4.68994,-6.05103 6.0274,-9.4179 1.1724,-2.95127 1.02161,-4.6711 -0.40956,-4.6711 -1.01064,0 -3.56689,2.57727 -4.70567,4.74436 -0.99744,1.89814 -1.59422,2.59716 -1.85585,2.17382 -0.0854,-0.1382 -0.32407,-1.12625 -0.53034,-2.19566 -0.72757,-3.77216 -2.16985,-5.89926 -3.8878,-5.73383 -1.26536,0.12184 -1.6236,0.93095 -1.44917,3.273 0.24567,3.29875 1.63713,6.88224 4.26312,10.97906 0.64886,1.01228 1.27541,1.8405 1.39236,1.8405 0.11694,0 0.63692,-0.44648 1.15551,-0.99218 z m -28.352167,-6.55437 c -2.428526,-0.82506 -8.293206,-3.67666 -10.453252,-5.08272 -1.580081,-1.02853 -1.594323,-1.03201 -2.351301,-0.57414 -1.319155,0.79792 -5.494968,2.04764 -7.810644,2.33754 -3.347021,0.41902 -6.689087,-0.21891 -7.046508,-1.34504 -0.62303,-1.963 2.234819,-2.78674 8.693325,-2.50574 2.210681,0.0962 4.494263,0.24844 5.074627,0.33835 l 1.055206,0.16348 -1.981248,-1.58587 c -2.819141,-2.25655 -5.510779,-4.88618 -7.623435,-7.44781 l -1.826119,-2.21419 -2.615849,-0.0677 c -4.55816,-0.11797 -8.336463,-1.52959 -11.016367,-4.11584 -1.600617,-1.54468 -1.853808,-2.2626 -1.073244,-3.04316 0.36024,-0.36024 0.745934,-0.41699 1.966893,-0.28937 2.218846,0.23192 4.562584,1.27326 8.157944,3.62465 1.751962,1.14579 3.185387,2.03029 3.185387,1.96553 0,-0.0648 -0.437914,-0.8023 -0.973143,-1.63899 -1.367996,-2.13853 -4.125039,-8.00666 -4.955884,-10.54819 l -0.698704,-2.13731 -1.636501,-0.77311 c -4.193243,-1.98096 -8.273175,-5.36073 -9.697758,-8.03352 -1.908443,-3.58061 -1.031672,-6.77867 1.499563,-5.46972 1.948604,1.00767 5.812918,5.59808 7.767303,9.22677 0.608116,1.12909 1.148517,2.01004 1.200886,1.95767 0.05237,-0.0524 -0.07608,-0.91664 -0.285449,-1.9206 -0.606568,-2.9086 -1.01927,-7.99847 -0.828267,-10.21503 l 0.175757,-2.03966 -1.039413,-1.53222 c -3.730374,-5.499 -5.928852,-12.00762 -5.098074,-15.0929 0.233451,-0.86697 0.456911,-1.15746 0.994075,-1.29228 0.89954,-0.22577 1.356698,0.0752 2.361868,1.55493 0.977588,1.43913 1.822546,4.37331 2.587104,8.98391 l 0.556975,3.3588 0.472728,-2.43276 c 0.5211,-2.68168 1.340657,-5.58219 2.463845,-8.71985 l 0.735187,-2.05377 -0.75012,-2.84102 c -1.294603,-4.90321 -1.228349,-10.35119 0.140954,-11.59039 0.586695,-0.53095 1.683198,-0.33767 1.966053,0.34656 0.493422,1.19359 0.923753,4.4253 0.924036,6.93932 l 2.65e-4,2.76984 0.973772,-1.57922 c 0.535573,-0.86857 1.71059,-2.54316 2.611147,-3.72131 l 1.637377,-2.14209 0.181266,-2.35583 c 0.398767,-5.1826 1.378479,-9.4707 2.805112,-12.277696 1.634895,-3.216761 2.975608,-3.474939 3.718497,-0.716062 0.538631,2.00033 -0.32132,5.653597 -2.256279,9.585168 l -1.071933,2.17803 1.918229,-1.59041 c 1.055026,-0.87473 1.918229,-1.68365 1.918229,-1.7976 0,-0.35885 5.500968,-5.083121 7.617844,-6.542259 2.19769,-1.51481 5.596049,-3.233534 6.393578,-3.233534 1.724673,0 1.827974,1.328507 0.237471,3.054 -2.10298,2.281461 -6.364283,4.670203 -11.580784,6.491793 -2.305595,0.80511 -2.518048,0.94953 -5.322719,3.61815 -1.6067,1.52877 -2.876185,2.82466 -2.821077,2.87977 0.05511,0.0551 1.027644,-0.32832 2.161196,-0.85205 4.300191,-1.98681 10.140133,-2.86573 11.535212,-1.73606 0.552916,0.44772 0.576676,0.56273 0.269486,1.30435 -0.390477,0.94269 -1.189879,1.37281 -4.132715,2.22361 -1.80935,0.5231 -2.634004,0.60238 -5.812653,0.55883 -2.037291,-0.0279 -4.052229,-0.0871 -4.477636,-0.13147 -0.69482,-0.0725 -0.950413,0.15305 -2.513542,2.21821 -1.829689,2.41732 -4.422786,6.74822 -4.183637,6.98737 0.07721,0.0772 0.9906,-0.28779 2.029762,-0.8111 3.084473,-1.55332 6.468721,-2.57342 9.032656,-2.72269 2.474878,-0.14408 3.419689,0.13276 3.419689,1.00202 0,0.30261 -0.451874,0.84553 -1.086162,1.30501 -2.185501,1.58317 -6.511436,2.81907 -11.404278,3.25817 l -3.362314,0.30174 -1.038419,2.78923 c -0.571129,1.53408 -1.301959,3.84598 -1.624065,5.13755 -0.610995,2.44994 -1.382583,6.81394 -1.231477,6.96505 0.04806,0.048 0.511924,-0.60044 1.030812,-1.44111 1.914173,-3.1012 4.816345,-5.73034 8.000278,-7.24761 4.495152,-2.14213 5.163283,0.6498 1.144466,4.78239 -2.487081,2.55749 -6.35565,4.79309 -9.399192,5.4317 -0.76836,0.16122 -0.863597,0.29179 -1.03302,1.41631 -0.259991,1.72565 0.296844,8.62146 0.965123,11.95207 0.306335,1.52672 0.599776,2.81865 0.652095,2.87097 0.05232,0.0523 0.234476,-0.42291 0.404799,-1.05606 0.442619,-1.64539 1.645103,-4.20754 2.738938,-5.83589 2.400125,-3.57298 6.284122,-6.71383 8.050088,-6.50982 0.627716,0.0725 0.719328,0.2095 0.790173,1.18151 0.149376,2.04943 -1.48862,4.78354 -4.97396,8.30242 -1.942592,1.96128 -5.498971,4.77798 -6.420592,5.08519 -0.421113,0.14037 1.10689,4.44534 2.840403,8.00249 1.581608,3.24544 3.7005,6.66994 3.908018,6.31605 0.07438,-0.12685 0.220094,-1.04543 0.323802,-2.04129 0.548741,-5.26924 3.434401,-10.6817 6.586488,-12.35388 1.163873,-0.61743 1.235861,-0.62495 1.684724,-0.17593 0.347146,0.34726 0.454499,0.82724 0.413438,1.84851 -0.105789,2.63137 -3.633648,8.68299 -7.18469,12.32447 l -1.384749,1.42001 1.489866,1.94515 c 2.027304,2.64683 5.44812,5.82929 8.358137,7.77577 1.328534,0.88864 2.457437,1.57379 2.508677,1.52255 0.05124,-0.0512 -0.02262,-0.80021 -0.164132,-1.66437 -1.099349,-6.71337 1.317474,-16.03678 3.468479,-13.38041 1.444416,1.78378 0.535117,9.524 -1.637239,13.93669 -0.465551,0.94566 -0.79919,1.7646 -0.741421,1.81987 0.330779,0.31644 8.276527,4.23148 11.030776,5.4351 3.876291,1.69395 4.184735,1.96743 2.548713,2.2598 -0.467741,0.0836 -1.560343,-0.12859 -2.758832,-0.53576 z m -0.815798,-1.28703 c -0.06063,-0.0563 -1.955713,-1.01314 -4.211286,-2.12626 -2.255573,-1.11311 -3.862916,-1.83162 -3.571875,-1.59668 0.999043,0.80646 8.512387,4.40033 7.783161,3.72294 z m -17.809287,-3.06135 c 2.433222,-0.58338 4.337584,-1.28866 4.337584,-1.60642 0,-0.6206 -9.044848,-0.87849 -10.988384,-0.31329 -1.457235,0.42377 -2.197667,0.98854 -1.810891,1.38127 1.08839,1.10516 5.047293,1.35707 8.461691,0.53844 z m 8.6423,-6.75812 c 1.419479,-4.00561 2.003734,-9.13406 1.262655,-11.08325 -0.281093,-0.73933 -0.303813,-0.74728 -0.814422,-0.28519 -1.571239,1.42195 -2.570456,9.27446 -1.659504,13.04146 0.201584,0.83359 0.439399,0.50511 1.211271,-1.67302 z m -16.071883,-7.79422 c -0.251108,-0.4063 -4.858473,-3.42127 -6.470407,-4.2341 -2.269643,-1.1445 -4.984038,-1.91396 -5.596155,-1.58636 -0.279365,0.14951 -0.507939,0.46468 -0.507939,0.70037 0,1.28777 4.902021,4.25348 8.202084,4.96225 2.023888,0.43468 4.601009,0.52771 4.372417,0.15784 z m 4.104627,-3.58286 c 3.277362,-3.80018 6.471508,-10.07296 5.768708,-11.32879 -0.387919,-0.69317 -0.930394,-0.53552 -2.207292,0.64149 -2.389698,2.20274 -4.338579,6.12295 -5.049983,10.15813 -0.205243,1.16417 -0.373332,2.15235 -0.373531,2.19596 -0.0013,0.26139 0.877541,-0.52518 1.862098,-1.66679 z M 49.06205,153.03343 c -0.0097,-0.43697 -2.420768,-4.66313 -3.616844,-6.33976 -1.616818,-2.26642 -4.097658,-4.92522 -5.273807,-5.65212 -1.240362,-0.76658 -1.688262,-0.38017 -1.688262,1.45651 0,1.09227 0.188868,1.69294 0.925724,2.94417 1.252921,2.12754 4.40049,5.04458 7.070287,6.55246 2.208617,1.24742 2.590977,1.40119 2.582902,1.03874 z m 5.877425,-2.38558 c 4.505868,-3.77988 8.231162,-9.38045 6.81975,-10.25275 -1.030285,-0.63675 -5.982825,3.69512 -7.869931,6.88365 -1.017101,1.71853 -2.441573,5.05863 -2.441573,5.72501 0,0.39749 1.070592,-0.32485 3.491754,-2.35591 z m -1.507379,-15.80254 c 3.917567,-1.9082 7.286446,-5.11019 7.807572,-7.42079 0.195411,-0.86642 0.168936,-0.91525 -0.493247,-0.90975 -1.715598,0.0142 -5.897089,2.79281 -8.015896,5.3265 -1.303095,1.55825 -3.134887,4.10256 -3.134887,4.35427 0,0.31629 1.496033,-0.21023 3.836458,-1.35023 z m -5.521052,-0.99417 c -0.476515,-4.63057 -1.489277,-9.49109 -2.378742,-11.41622 -0.855255,-1.85109 -1.71735,-2.76011 -2.284943,-2.40932 -0.138558,0.0856 -0.376802,0.61946 -0.529429,1.18627 -0.437087,1.62322 0.660528,6.15083 2.253598,9.29601 0.717799,1.41713 2.860768,4.99691 2.991316,4.99691 0.0651,0 0.04179,-0.74414 -0.0518,-1.65365 z m 12.094075,-14.76647 c 3.138514,-0.63662 7.243012,-2.17173 7.927579,-2.96496 0.447394,-0.51841 0.449088,-0.56952 0.02672,-0.80588 -0.767389,-0.42946 -4.135339,-0.004 -6.655628,0.83997 -2.458884,0.8238 -7.474824,3.05545 -7.474824,3.32564 0,0.34633 3.683165,0.11091 6.176148,-0.39477 z m -6.862853,-0.44707 c 0.07849,-0.25466 0.338403,-1.59411 0.577589,-2.97656 0.66281,-3.83092 0.250295,-8.35377 -0.868747,-9.525 -0.335597,-0.35125 -0.436398,-0.32712 -0.876786,0.20984 -1.040832,1.26908 -1.035437,5.34889 0.01328,10.04276 0.592267,2.65088 0.866293,3.1846 1.15466,2.24896 z m 14.716563,-10.13047 c 3.97669,-0.48731 7.13681,-1.59437 7.13681,-2.50017 0,-1.58822 -5.521111,-0.95803 -10.777308,1.23013 -1.057481,0.44022 -1.922692,0.90184 -1.922692,1.02581 0,0.12397 0.565546,0.26999 1.25677,0.32449 0.691224,0.0545 1.43849,0.12056 1.660586,0.14679 0.2221,0.0262 1.412725,-0.0759 2.645834,-0.22705 z m -4.558062,-5.81067 c 1.019395,-1.96453 2.056088,-4.286253 2.303759,-5.159378 0.611423,-2.155477 0.612767,-4.391164 0.0032,-5.321485 l -0.477078,-0.728113 -0.72504,0.811463 c -1.521508,1.702855 -3.203536,7.570728 -3.587197,12.514173 -0.223473,2.8794 -0.02014,2.70601 2.482355,-2.11666 z m 10.107372,-3.822851 c 2.84973,-1.201725 5.688114,-2.926702 7.176704,-4.361511 1.361401,-1.312217 1.717223,-2.398974 0.785461,-2.398974 -1.036283,0 -3.95047,1.572218 -6.565622,3.542185 -2.793781,2.104526 -3.818073,3.101849 -2.08682,2.031876 1.345986,-0.831865 2.974166,-1.605311 3.379338,-1.605311 0.183357,0 -0.793977,0.687347 -2.171848,1.527439 -1.377871,0.840091 -2.802059,1.744083 -3.164864,2.00887 l -0.659641,0.481437 0.661459,-0.194605 c 0.363802,-0.107031 1.554427,-0.571163 2.645833,-1.031406 z m 61.415581,90.367121 c -0.59223,-0.37511 -0.17289,-0.6963 2.2777,-1.74456 1.92833,-0.82486 7.22303,-3.40198 10.84782,-5.28001 1.1601,-0.60106 1.21594,-0.7615 0.61884,-1.77804 -1.9576,-3.33274 -3.2993,-11.4155 -2.29422,-13.82099 0.74349,-1.77944 1.6663,-1.55773 2.65122,0.63696 1.33805,2.98158 1.89916,8.58867 1.19026,11.89415 -0.15761,0.73489 -0.2429,1.46714 -0.18954,1.62722 0.0534,0.16008 1.22411,-0.46019 2.60166,-1.37837 2.66922,-1.77912 6.84189,-5.72605 8.71548,-8.24397 l 1.13523,-1.52562 -1.61876,-1.60376 c -2.77813,-2.7524 -5.47276,-6.99481 -6.68995,-10.53262 -0.61422,-1.78526 -0.61926,-2.45667 -0.0239,-3.19184 0.6912,-0.8536 1.76714,-0.46816 3.42176,1.2258 2.6415,2.70432 4.33872,6.35668 4.87537,10.49163 0.41287,3.18119 0.39274,3.16822 1.71593,1.10521 2.57632,-4.01677 6.2179,-12.49382 5.47869,-12.75355 -0.68901,-0.24209 -4.08916,-2.78436 -5.62222,-4.20371 -3.54132,-3.27863 -6.56091,-8.28902 -5.88696,-9.76819 0.55712,-1.22275 2.35857,-0.68751 4.94152,1.46822 2.93714,2.45134 5.15666,5.70836 6.39024,9.37733 0.37356,1.11104 0.72898,1.97029 0.78982,1.90944 0.0609,-0.0608 0.34589,-1.32425 0.63343,-2.80756 0.64212,-3.31243 1.10338,-9.37505 0.88103,-11.5799 l -0.16494,-1.63557 -1.35437,-0.32279 c -3.01577,-0.71874 -6.22729,-2.6319 -8.81993,-5.25419 -3.06353,-3.09856 -3.5985,-5.57166 -1.20524,-5.57166 2.67831,0 9.14888,5.22492 10.73092,8.6651 0.39458,0.85804 0.64299,0.73206 0.52167,-0.26458 -0.45404,-3.72999 -1.57049,-8.14722 -2.98874,-11.82486 l -0.79323,-2.05692 -2.70097,-0.18603 c -4.68498,-0.32267 -9.46004,-1.60119 -11.77811,-3.15358 -2.27896,-1.5262 -1.70902,-2.55621 1.41444,-2.55621 2.22552,0 4.15953,0.5434 8.53784,2.39887 1.67741,0.71086 3.10242,1.23991 3.16667,1.17566 0.21346,-0.21346 -2.06939,-3.94874 -4.0966,-6.70301 l -1.9992,-2.71621 -1.2282,0.21036 c -0.67551,0.1157 -2.65695,0.20682 -4.4032,0.20247 -4.8171,-0.012 -8.42995,-1.1116 -9.3848,-2.8564 -0.38467,-0.70291 -0.37192,-0.76679 0.25667,-1.2856 0.60051,-0.49563 0.90526,-0.53284 3.30729,-0.40379 2.75471,0.148 5.39337,0.87526 8.66511,2.38826 0.83674,0.38695 1.52135,0.59649 1.52135,0.46564 0,-0.41065 -5.38433,-5.35515 -6.21771,-5.70979 -0.43656,-0.18578 -1.98437,-0.77206 -3.43958,-1.30284 -3.55879,-1.298052 -7.21831,-3.365487 -9.246,-5.223493 -1.76834,-1.620362 -2.05166,-2.131601 -1.70325,-3.073435 0.75424,-2.038905 7.39512,1.633506 13.46279,7.444926 1.09141,1.045312 2.78691,2.596682 3.76779,3.447482 l 1.78341,1.54692 -1.16832,-2.47749 c -1.4785,-3.135246 -2.00163,-5.179796 -2.00163,-7.822925 0,-2.525424 0.29461,-3.067709 1.59918,-2.943621 0.85709,0.08152 0.98374,0.225337 2.02202,2.295972 1.39418,2.780395 2.36129,6.773014 2.71697,11.216724 l 0.26987,3.37156 1.6652,2.18469 c 0.91587,1.20158 2.11658,2.92883 2.66827,3.83834 0.55168,0.9095 1.0242,1.65378 1.05004,1.65394 0.0258,1.6e-4 0.005,-1.27976 -0.0474,-2.84427 -0.0519,-1.56451 0.0477,-3.64525 0.22128,-4.62386 0.62271,-3.51004 2.43191,-4.195 3.40751,-1.29008 0.70731,2.10605 0.18699,8.02535 -1.01169,11.50937 l -0.50957,1.48109 0.62607,1.41566 c 0.90874,2.05482 1.9193,5.44382 2.60921,8.75021 l 0.60283,2.88905 0.68985,-4.21196 c 0.76602,-4.67706 1.42218,-6.72559 2.68663,-8.3877 2.18141,-2.86746 3.87386,-0.57042 2.97918,4.04344 -0.66845,3.44715 -1.83582,6.14763 -4.40364,10.18696 l -1.5141,2.38175 -0.15669,5.15887 c -0.0862,2.83739 -0.32863,6.05185 -0.53876,7.14326 -0.21014,1.0914 -0.34847,2.01982 -0.30739,2.06314 0.0411,0.0433 0.6334,-0.91664 1.31629,-2.13325 1.54109,-2.74553 3.01091,-4.72455 5.16882,-6.95947 2.60648,-2.69949 4.06093,-3.13689 4.76652,-1.43345 1.43959,3.47547 -3.52324,9.52411 -10.50569,12.80423 l -1.63769,0.76934 -0.69666,2.14108 c -1.05723,3.24928 -3.75384,8.74353 -5.90402,12.02922 -0.28096,0.42935 0.29536,0.12863 1.8237,-0.95159 3.02431,-2.13757 4.76755,-3.08257 7.17592,-3.89 2.45911,-0.82444 3.66893,-0.87004 4.30932,-0.16241 1.05481,1.16554 -0.58936,3.20093 -4.02853,4.98712 -2.74381,1.42503 -4.92901,1.9678 -8.07086,2.00467 l -2.58403,0.0303 -2.21944,2.66126 c -2.16875,2.60048 -4.90189,5.22499 -7.82603,7.51499 l -1.45521,1.13963 2.38125,-0.23398 c 1.30969,-0.12869 4.04813,-0.23398 6.08542,-0.23398 4.34012,0 6.08887,0.45286 6.39056,1.65492 0.53591,2.13524 -4.38056,3.03797 -9.56556,1.75636 -1.82146,-0.45022 -4.7488,-1.55923 -5.49459,-2.0816 -0.45117,-0.316 -0.77507,-0.19184 -2.93028,1.12325 -2.93652,1.79185 -7.08201,3.7763 -9.78205,4.68267 -2.13339,0.71616 -2.74782,0.79573 -3.32438,0.43055 z m 8.05264,-3.31212 c 1.88347,-0.9345 3.66262,-1.89131 3.95366,-2.12625 0.29104,-0.23494 -1.3163,0.48357 -3.57188,1.59668 -2.25557,1.11312 -4.15065,2.06993 -4.21128,2.12626 -0.4518,0.41968 0.90948,-0.14789 3.8295,-1.59669 z m 21.74196,-1.49292 c 1.48228,-0.9257 0.49082,-1.67639 -2.83532,-2.14677 -2.20815,-0.31227 -8.5996,0.0702 -9.0723,0.54289 -0.2699,0.26991 2.21701,1.22419 4.57036,1.75376 2.11397,0.47569 6.47832,0.38654 7.33726,-0.14988 z m -14.93888,-8.97882 c 0.003,-3.72859 -0.7542,-7.65344 -1.71232,-8.8715 -0.68554,-0.87151 -1.01799,-0.58111 -1.28158,1.11951 -0.40416,2.60749 0.82784,9.24436 2.19846,11.84323 0.26253,0.49781 0.28467,0.49232 0.53318,-0.13229 0.1426,-0.35841 0.26062,-2.13994 0.26226,-3.95895 z m 18.84641,-5.68837 c 3.60675,-0.75465 8.33438,-3.70205 8.33438,-5.196 0,-0.53243 -0.0959,-0.55751 -1.60779,-0.42042 -1.92673,0.17471 -4.95528,1.55196 -8.28522,3.76775 -3.06089,2.03675 -3.20908,2.24658 -1.58262,2.24078 0.70904,-0.003 2.12261,-0.17898 3.14125,-0.39211 z m -6.64768,-2.84444 c -0.66269,-4.34141 -2.47324,-8.37535 -4.86886,-10.84792 -1.55228,-1.60214 -2.18148,-1.84645 -2.62433,-1.01898 -0.47043,0.87901 1.05577,4.57084 3.23775,7.832 1.40202,2.09545 3.88992,5.15938 4.18939,5.15938 0.13073,0 0.16045,-0.50602 0.0661,-1.12448 z m 7.30914,-13.95073 c 0,-0.70705 -1.48721,-4.06245 -2.58121,-5.82363 -1.48814,-2.39571 -4.51936,-5.46114 -6.24073,-6.31117 -1.66065,-0.82005 -2.07833,-0.6571 -1.71898,0.67062 0.65428,2.41736 3.89868,6.62768 7.13396,9.25788 0.92794,0.7544 1.98483,1.61364 2.34863,1.90943 0.73286,0.59586 1.05833,0.68716 1.05833,0.29687 z m 3.78085,-0.3055 c 3.57935,-1.81239 7.38881,-5.24882 8.52567,-7.69081 0.72391,-1.55497 0.87977,-3.66719 0.30575,-4.14358 -0.78914,-0.65493 -4.02736,2.21422 -6.65495,5.89645 -1.11291,1.5596 -3.56227,5.88243 -3.57165,6.30354 -0.007,0.29868 0.17973,0.24984 1.39518,-0.3656 z m -2.42083,-17.22919 c -2.32398,-3.67328 -5.41377,-6.65606 -8.44174,-8.14935 -1.84137,-0.90809 -2.53507,-0.92583 -2.65777,-0.0679 -0.12335,0.86237 0.58733,2.02728 2.27203,3.72423 1.92858,1.94261 3.87541,3.2587 6.54298,4.42318 2.69431,1.17616 2.99013,1.18521 2.2845,0.0699 z m 5.1024,-5.09323 c 2.53719,-5.22931 3.12259,-11.35137 0.97556,-10.20232 -1.17506,0.62887 -2.1711,3.309 -3.10328,8.35024 -0.48435,2.61938 -0.8812,5.29828 -0.8819,5.95313 l -0.001,1.19062 0.92776,-1.45521 c 0.51028,-0.80036 1.44768,-2.52677 2.08312,-3.83646 z m -8.84367,-10.8441 c 0,-0.22491 -3.20003,-1.75378 -5.65625,-2.70237 -3.77014,-1.45603 -7.95056,-2.09037 -8.60212,-1.3053 -0.38219,0.46052 -0.067,0.73336 1.99336,1.72553 1.42342,0.68544 4.26948,1.51682 7.23793,2.1143 1.27355,0.25634 5.02708,0.38166 5.02708,0.16784 z m 1.67487,-2.51735 c 1.29903,-5.42732 1.29797,-9.42479 -0.003,-10.7256 -0.35059,-0.35058 -0.48131,-0.36368 -0.74903,-0.0751 -1.35015,1.45548 -1.53295,7.51088 -0.36102,11.9588 0.3386,1.28511 0.59095,1.0225 1.11289,-1.15813 z m -11.03065,-8.46667 c 1.38828,0 1.05752,-0.40968 -1.03358,-1.2802 -3.68564,-1.53434 -8.38155,-2.48601 -10.11728,-2.05037 -0.93826,0.23548 -0.79565,1.16341 0.27457,1.78654 1.63098,0.94963 6.54811,1.87147 8.82577,1.65461 0.63877,-0.0608 1.56151,-0.11058 2.05052,-0.11058 z m 2.47661,-2.2507 c 0,-0.95254 -0.74786,-5.80035 -1.18752,-7.697741 -0.2057,-0.887736 -0.74496,-2.554611 -1.19834,-3.704166 -1.30107,-3.298843 -2.31769,-3.877318 -2.91509,-1.658746 -0.57644,2.14074 0.83727,6.600627 3.65806,11.540183 0.68531,1.20007 1.33532,2.18233 1.44446,2.18281 0.10914,5.3e-4 0.19843,-0.29758 0.19843,-0.66234 z m -9.26041,-6.05032 c 0,-0.10392 -3.38608,-2.314458 -5.10715,-3.334106 -1.89586,-1.123205 -0.74459,-0.860015 1.52925,0.349599 1.24974,0.664823 2.19519,1.084081 2.101,0.931685 -0.40945,-0.662505 -5.60341,-4.2751 -7.36386,-5.121843 -2.14061,-1.029591 -2.92444,-1.148527 -3.18001,-0.482528 -0.24688,0.643363 2.4568,3.118251 4.96573,4.545523 2.71717,1.545735 7.05504,3.45898 7.05504,3.11167 z"
       id="path179" /></g></svg>
